<svg width="272" height="78" viewBox="0 0 272 78" fill="none" xmlns="http://www.w3.org/2000/svg">
<rect y="34.7349" width="272" height="42.4252" fill="white"/>
<path d="M35.3061 68.1234L42.5216 43.3631H37.5727L32.6616 62.4067L27.4483 43.3631H23.935L18.7216 62.4067L13.8105 43.3631H8.89941L16.0772 68.1234H20.7994L25.7105 49.8223L30.5839 68.1234H35.3061Z" fill="#001EFF"/>
<path d="M57.247 68.5689C64.7648 68.5689 70.1292 63.1491 70.1292 55.7618C70.1292 48.3745 64.7648 42.9547 57.247 42.9547C49.6914 42.9547 44.3648 48.3745 44.3648 55.7618C44.3648 63.1491 49.6914 68.5689 57.247 68.5689ZM57.247 64.7082C52.147 64.7082 48.8981 60.8475 48.8981 55.7618C48.8981 50.639 52.147 46.8154 57.247 46.8154C62.3092 46.8154 65.5959 50.639 65.5959 55.7618C65.5959 60.8475 62.3092 64.7082 57.247 64.7082Z" fill="#001EFF"/>
<path d="M94.6337 68.1234L88.4382 58.3975C91.4982 57.9149 94.4448 55.502 94.4448 51.1216C94.4448 46.5184 91.1582 43.3631 86.1715 43.3631H75.1026V68.1234H79.5226V58.8801H83.9426L89.4959 68.1234H94.6337ZM85.6048 55.0565H79.5226V47.1866H85.6048C88.0982 47.1866 89.9115 48.7086 89.9115 51.0844C89.9115 53.4974 88.0982 55.0565 85.6048 55.0565Z" fill="#001EFF"/>
<path d="M120.168 68.1234L109.137 55.0194L119.375 43.3631H113.897L104.037 55.1307V43.3631H99.6168V68.1234H104.037V60.2165L106.266 57.655L114.69 68.1234H120.168Z" fill="#001EFF"/>
<path d="M132.487 68.5689C139.249 68.5689 142.234 65.0052 142.234 60.8847C142.234 51.6784 127.576 54.5368 127.576 49.8965C127.576 48.0776 129.238 46.8154 131.807 46.8154C134.451 46.8154 137.134 47.7063 139.136 49.6738L141.629 46.4442C139.325 44.2169 136.114 42.9547 132.223 42.9547C126.669 42.9547 123.043 46.1101 123.043 50.2306C123.043 59.3255 137.7 56.0959 137.7 61.293C137.7 62.9635 136.303 64.7082 132.676 64.7082C129.163 64.7082 126.405 63.0748 124.705 61.2559L122.211 64.634C124.478 66.9355 127.84 68.5689 132.487 68.5689Z" fill="#001EFF"/>
<path d="M151.442 68.1234V58.8429H158.129C163.38 58.8429 166.326 55.3163 166.326 51.1216C166.326 46.8896 163.418 43.3631 158.129 43.3631H147.022V68.1234H151.442ZM157.524 55.0194H151.442V47.1866H157.524C160.018 47.1866 161.793 48.7457 161.793 51.1216C161.793 53.4602 160.018 55.0194 157.524 55.0194Z" fill="#001EFF"/>
<path d="M190.662 68.1234L180.764 43.3631H175.249L165.351 68.1234H170.376L172.227 63.3347H183.787L185.638 68.1234H190.662ZM182.54 59.5111H173.473L178.007 47.7063L182.54 59.5111Z" fill="#001EFF"/>
<path d="M204.931 68.5689C209.993 68.5689 213.128 65.9332 215.055 62.9635L211.277 61.1074C210.068 63.1491 207.613 64.7082 204.931 64.7082C199.944 64.7082 196.242 60.9218 196.242 55.7618C196.242 50.5276 199.944 46.8154 204.931 46.8154C207.613 46.8154 210.068 48.3374 211.277 50.4162L215.017 48.4859C213.166 45.5161 209.993 42.9547 204.931 42.9547C197.488 42.9547 191.708 48.1147 191.708 55.7618C191.708 63.3718 197.488 68.5689 204.931 68.5689Z" fill="#001EFF"/>
<path d="M236.575 68.1234V64.2999H223.73V57.3952H236.31V53.5716H223.73V47.1866H236.575V43.3631H219.31V68.1234H236.575Z" fill="#001EFF"/>
<path d="M14.1505 26.0178H19.3037L13.5846 14.6834L13.781 14.6285C16.7739 13.7954 18.4667 11.4562 18.4293 8.20598C18.3872 3.49552 15.4037 0.794678 10.2458 0.794678H0V26.0178H4.65291V15.6127H9.231L14.1505 26.0178ZM4.65291 11.978V4.42938H9.37596C12.2519 4.42938 13.7764 5.73402 13.7764 8.20598C13.7764 10.8885 12.2519 11.9826 8.51085 11.9826H4.65291V11.978Z" fill="white"/>
<path d="M38.2754 14.7658V10.9892H29.3483V4.57129H41.6376V0.794678H24.6954V26.0178H42.0351V22.2412H29.3483V14.7658H38.2754Z" fill="white"/>
<path d="M61.7411 10.9892H53.0291V4.57129H64.6684V0.794678H48.3762V26.0178H53.0291V14.7658H61.7411V10.9892Z" fill="white"/>
<path d="M70.2473 0.794678V26.0178H74.9002V24.5118V0.794678H70.2473Z" fill="white"/>
<path d="M110.562 0.794678V26.0178H115.214V24.1318V0.794678H110.562Z" fill="white"/>
<path d="M139.218 0.794678H120.901V4.57129H127.733V26.0178H132.386V4.57129H139.218V0.794678Z" fill="white"/>
<path d="M144.871 0.794678V26.0178H149.524V23.8846V0.794678H144.871Z" fill="white"/>
<path d="M98.3424 0.794678V18.6706H98.2722L87.7365 0.794678H82.7937V26.0178H87.1567V7.36369H87.2268L98.16 26.0178H102.705V0.794678H98.3424Z" fill="white"/>
<path d="M171.559 0.794678L165.527 21.2387H165.485L159.448 0.794678H154.888L162.847 26.0178H168.164L176.123 0.794678H171.559Z" fill="white"/>
<path d="M183.492 7.15845C182.902 7.15845 182.357 7.01837 181.858 6.7382C181.369 6.44803 180.977 6.0628 180.682 5.58252C180.397 5.09223 180.254 4.55691 180.254 3.97657C180.254 3.39622 180.397 2.86591 180.682 2.38562C180.977 1.89533 181.369 1.5101 181.858 1.22994C182.357 0.939764 182.902 0.794678 183.492 0.794678C184.083 0.794678 184.622 0.939764 185.111 1.22994C185.61 1.5101 186.002 1.89533 186.287 2.38562C186.583 2.86591 186.73 3.39622 186.73 3.97657C186.73 4.55691 186.583 5.09223 186.287 5.58252C186.002 6.0628 185.61 6.44803 185.111 6.7382C184.622 7.01837 184.083 7.15845 183.492 7.15845ZM183.492 1.22994C182.983 1.22994 182.509 1.35501 182.072 1.60516C181.644 1.8453 181.303 2.1755 181.048 2.59575C180.804 3.016 180.682 3.47627 180.682 3.97657C180.682 4.47686 180.804 4.93713 181.048 5.35738C181.303 5.77763 181.644 6.11283 182.072 6.36298C182.509 6.61313 182.983 6.7382 183.492 6.7382C184.001 6.7382 184.47 6.61313 184.897 6.36298C185.325 6.11283 185.661 5.77763 185.905 5.35738C186.16 4.93713 186.287 4.47686 186.287 3.97657C186.287 3.47627 186.16 3.016 185.905 2.59575C185.661 2.1755 185.325 1.8453 184.897 1.60516C184.47 1.35501 184.001 1.22994 183.492 1.22994ZM183.416 4.3668H182.728V5.80765H182.255V2.16049H183.767C184.093 2.16049 184.368 2.26555 184.592 2.47568C184.816 2.67579 184.928 2.94095 184.928 3.27115C184.928 3.5213 184.867 3.72642 184.745 3.88651C184.633 4.04661 184.5 4.16668 184.347 4.24673C184.195 4.31677 184.073 4.35179 183.981 4.35179L184.974 5.80765H184.378L183.416 4.3668ZM182.744 2.58074V3.93154H183.782C183.966 3.93154 184.123 3.8715 184.256 3.75143C184.388 3.62135 184.454 3.46126 184.454 3.27115C184.454 3.07103 184.388 2.90593 184.256 2.77585C184.123 2.64578 183.966 2.58074 183.782 2.58074H182.744Z" fill="white"/>
</svg>
