<svg width="272" height="77" viewBox="0 0 272 77" fill="none" xmlns="http://www.w3.org/2000/svg">
<rect y="33.9401" width="272" height="42.4251" fill="#001EFF"/>
<path d="M35.3061 67.3288L42.5216 42.5684H37.5727L32.6616 61.612L27.4483 42.5684H23.935L18.7216 61.612L13.8105 42.5684H8.89941L16.0772 67.3288H20.7994L25.7105 49.0276L30.5839 67.3288H35.3061Z" fill="white"/>
<path d="M57.247 67.7742C64.7648 67.7742 70.1292 62.3544 70.1292 54.9671C70.1292 47.5799 64.7648 42.16 57.247 42.16C49.6914 42.16 44.3648 47.5799 44.3648 54.9671C44.3648 62.3544 49.6914 67.7742 57.247 67.7742ZM57.247 63.9135C52.147 63.9135 48.8981 60.0529 48.8981 54.9671C48.8981 49.8443 52.147 46.0207 57.247 46.0207C62.3092 46.0207 65.5959 49.8443 65.5959 54.9671C65.5959 60.0529 62.3092 63.9135 57.247 63.9135Z" fill="white"/>
<path d="M94.6337 67.3288L88.4382 57.6028C91.4982 57.1202 94.4448 54.7073 94.4448 50.3269C94.4448 45.7237 91.1582 42.5684 86.1715 42.5684H75.1026V67.3288H79.5226V58.0854H83.9426L89.4959 67.3288H94.6337ZM85.6048 54.2618H79.5226V46.3919H85.6048C88.0982 46.3919 89.9115 47.9139 89.9115 50.2898C89.9115 52.7027 88.0982 54.2618 85.6048 54.2618Z" fill="white"/>
<path d="M120.168 67.3288L109.137 54.2247L119.375 42.5684H113.897L104.037 54.3361V42.5684H99.6168V67.3288H104.037V59.4218L106.266 56.8604L114.69 67.3288H120.168Z" fill="white"/>
<path d="M132.487 67.7742C139.249 67.7742 142.234 64.2105 142.234 60.09C142.234 50.8837 127.576 53.7421 127.576 49.1019C127.576 47.2829 129.238 46.0207 131.807 46.0207C134.451 46.0207 137.134 46.9117 139.136 48.8791L141.629 45.6495C139.325 43.4222 136.114 42.16 132.223 42.16C126.669 42.16 123.043 45.3154 123.043 49.436C123.043 58.5308 137.7 55.3012 137.7 60.4983C137.7 62.1688 136.303 63.9135 132.676 63.9135C129.163 63.9135 126.405 62.2802 124.705 60.4612L122.211 63.8393C124.478 66.1409 127.84 67.7742 132.487 67.7742Z" fill="white"/>
<path d="M151.442 67.3288V58.0483H158.129C163.38 58.0483 166.326 54.5217 166.326 50.3269C166.326 46.095 163.418 42.5684 158.129 42.5684H147.022V67.3288H151.442ZM157.524 54.2247H151.442V46.3919H157.524C160.018 46.3919 161.793 47.9511 161.793 50.3269C161.793 52.6656 160.018 54.2247 157.524 54.2247Z" fill="white"/>
<path d="M190.662 67.3288L180.764 42.5684H175.249L165.351 67.3288H170.376L172.227 62.54H183.787L185.638 67.3288H190.662ZM182.54 58.7165H173.473L178.007 46.9117L182.54 58.7165Z" fill="white"/>
<path d="M204.931 67.7742C209.993 67.7742 213.128 65.1386 215.055 62.1688L211.277 60.3127C210.068 62.3544 207.613 63.9135 204.931 63.9135C199.944 63.9135 196.242 60.1271 196.242 54.9671C196.242 49.7329 199.944 46.0207 204.931 46.0207C207.613 46.0207 210.068 47.5427 211.277 49.6216L215.017 47.6912C213.166 44.7215 209.993 42.16 204.931 42.16C197.488 42.16 191.708 47.32 191.708 54.9671C191.708 62.5772 197.488 67.7742 204.931 67.7742Z" fill="white"/>
<path d="M236.575 67.3288V63.5052H223.73V56.6005H236.31V52.7769H223.73V46.3919H236.575V42.5684H219.31V67.3288H236.575Z" fill="white"/>
<path d="M14.1505 25.2232H19.3037L13.5846 13.8888L13.781 13.8338C16.7739 13.0007 18.4667 10.6615 18.4293 7.4113C18.3872 2.70085 15.4037 0 10.2458 0H0V25.2232H4.65291V14.818H9.231L14.1505 25.2232ZM4.65291 11.1833V3.6347H9.37596C12.2519 3.6347 13.7764 4.93934 13.7764 7.4113C13.7764 10.0938 12.2519 11.1879 8.51085 11.1879H4.65291V11.1833Z" fill="black"/>
<path d="M38.2753 13.9712V10.1945H29.3482V3.77661H41.6375V0H24.6953V25.2232H42.035V21.4465H29.3482V13.9712H38.2753Z" fill="black"/>
<path d="M61.7411 10.1945H53.0291V3.77661H64.6684V0H48.3762V25.2232H53.0291V13.9712H61.7411V10.1945Z" fill="black"/>
<path d="M70.2471 0V25.2232H74.9V23.7171V0H70.2471Z" fill="black"/>
<path d="M110.562 0V25.2232H115.214V23.3371V0H110.562Z" fill="black"/>
<path d="M139.218 0H120.901V3.77661H127.733V25.2232H132.386V3.77661H139.218V0Z" fill="black"/>
<path d="M144.872 0V25.2232H149.525V23.0899V0H144.872Z" fill="black"/>
<path d="M98.3424 0V17.8759H98.2722L87.7365 0H82.7937V25.2232H87.1567V6.56901H87.2268L98.16 25.2232H102.705V0H98.3424Z" fill="black"/>
<path d="M171.559 0L165.527 20.444H165.485L159.448 0H154.888L162.847 25.2232H168.164L176.123 0H171.559Z" fill="black"/>
<path d="M183.492 6.36377C182.902 6.36377 182.357 6.22369 181.858 5.94352C181.369 5.65335 180.977 5.26812 180.682 4.78784C180.397 4.29755 180.254 3.76223 180.254 3.18189C180.254 2.60154 180.397 2.07123 180.682 1.59094C180.977 1.10065 181.369 0.715425 181.858 0.435259C182.357 0.145086 182.902 0 183.492 0C184.083 0 184.623 0.145086 185.111 0.435259C185.61 0.715425 186.002 1.10065 186.287 1.59094C186.583 2.07123 186.73 2.60154 186.73 3.18189C186.73 3.76223 186.583 4.29755 186.287 4.78784C186.002 5.26812 185.61 5.65335 185.111 5.94352C184.623 6.22369 184.083 6.36377 183.492 6.36377ZM183.492 0.435259C182.983 0.435259 182.51 0.560333 182.072 0.810481C181.644 1.05062 181.303 1.38082 181.048 1.80107C180.804 2.22132 180.682 2.68159 180.682 3.18189C180.682 3.68218 180.804 4.14246 181.048 4.56271C181.303 4.98295 181.644 5.31815 182.072 5.5683C182.51 5.81845 182.983 5.94352 183.492 5.94352C184.001 5.94352 184.47 5.81845 184.897 5.5683C185.325 5.31815 185.661 4.98295 185.906 4.56271C186.16 4.14246 186.287 3.68218 186.287 3.18189C186.287 2.68159 186.16 2.22132 185.906 1.80107C185.661 1.38082 185.325 1.05062 184.897 0.810481C184.47 0.560333 184.001 0.435259 183.492 0.435259ZM183.416 3.57212H182.729V5.01297H182.255V1.36581H183.767C184.093 1.36581 184.368 1.47087 184.592 1.681C184.816 1.88112 184.928 2.14627 184.928 2.47647C184.928 2.72662 184.867 2.93174 184.745 3.09183C184.633 3.25193 184.5 3.372 184.348 3.45205C184.195 3.52209 184.073 3.55711 183.981 3.55711L184.974 5.01297H184.378L183.416 3.57212ZM182.744 1.78606V3.13686H183.782C183.966 3.13686 184.124 3.07682 184.256 2.95675C184.388 2.82668 184.455 2.66658 184.455 2.47647C184.455 2.27635 184.388 2.11125 184.256 1.98118C184.124 1.8511 183.966 1.78606 183.782 1.78606H182.744Z" fill="black"/>
</svg>
