<svg width="265" height="93" viewBox="0 0 265 93" fill="none" xmlns="http://www.w3.org/2000/svg">
<rect y="51.6666" width="265" height="41.3333" fill="#001EFF"/>
<path d="M34.3974 84.1959L41.4273 60.0728H36.6058L31.821 78.6263L26.7419 60.0728H23.319L18.2398 78.6263L13.4551 60.0728H8.67035L15.6634 84.1959H20.2641L25.0488 66.3658L29.7967 84.1959H34.3974Z" fill="white"/>
<path d="M55.7737 84.6299C63.098 84.6299 68.3244 79.3496 68.3244 72.1524C68.3244 64.9553 63.098 59.6749 55.7737 59.6749C48.4126 59.6749 43.223 64.9553 43.223 72.1524C43.223 79.3496 48.4126 84.6299 55.7737 84.6299ZM55.7737 80.8686C50.8049 80.8686 47.6397 77.1073 47.6397 72.1524C47.6397 67.1614 50.8049 63.4363 55.7737 63.4363C60.7056 63.4363 63.9077 67.1614 63.9077 72.1524C63.9077 77.1073 60.7056 80.8686 55.7737 80.8686Z" fill="white"/>
<path d="M92.1983 84.1959L86.1622 74.7203C89.1434 74.2501 92.0142 71.8993 92.0142 67.6316C92.0142 63.1469 88.8121 60.0728 83.9538 60.0728H73.1698V84.1959H77.476V75.1904H81.7823L87.1927 84.1959H92.1983ZM83.4017 71.4653H77.476V63.7979H83.4017C85.8309 63.7979 87.5976 65.2808 87.5976 67.5954C87.5976 69.9463 85.8309 71.4653 83.4017 71.4653Z" fill="white"/>
<path d="M117.075 84.1959L106.328 71.4291L116.302 60.0728H110.966L101.359 71.5376V60.0728H97.0531V84.1959H101.359V76.4924L103.531 73.9969L111.739 84.1959H117.075Z" fill="white"/>
<path d="M129.077 84.6299C135.666 84.6299 138.573 81.1579 138.573 77.1434C138.573 68.1741 124.293 70.9589 124.293 66.4381C124.293 64.6659 125.912 63.4363 128.415 63.4363C130.991 63.4363 133.605 64.3043 135.555 66.2211L137.984 63.0746C135.739 60.9046 132.611 59.6749 128.82 59.6749C123.409 59.6749 119.876 62.7491 119.876 66.7636C119.876 75.6244 134.157 72.4779 134.157 77.5413C134.157 79.1688 132.795 80.8686 129.261 80.8686C125.839 80.8686 123.152 79.2773 121.495 77.5051L119.066 80.7963C121.275 83.0386 124.55 84.6299 129.077 84.6299Z" fill="white"/>
<path d="M147.545 84.1959V75.1543H154.059C159.175 75.1543 162.046 71.7184 162.046 67.6316C162.046 63.5086 159.212 60.0728 154.059 60.0728H143.238V84.1959H147.545ZM153.47 71.4291H147.545V63.7979H153.47C155.899 63.7979 157.629 65.3169 157.629 67.6316C157.629 69.9101 155.899 71.4291 153.47 71.4291Z" fill="white"/>
<path d="M185.755 84.1959L176.112 60.0728H170.739L161.096 84.1959H165.991L167.794 79.5304H179.057L180.86 84.1959H185.755ZM177.842 75.8053H169.009L173.426 64.3043L177.842 75.8053Z" fill="white"/>
<path d="M199.657 84.6299C204.589 84.6299 207.643 82.0621 209.521 79.1688L205.84 77.3604C204.662 79.3496 202.27 80.8686 199.657 80.8686C194.798 80.8686 191.191 77.1796 191.191 72.1524C191.191 67.0529 194.798 63.4363 199.657 63.4363C202.27 63.4363 204.662 64.9191 205.84 66.9444L209.484 65.0638C207.68 62.1704 204.589 59.6749 199.657 59.6749C192.406 59.6749 186.775 64.7021 186.775 72.1524C186.775 79.5666 192.406 84.6299 199.657 84.6299Z" fill="white"/>
<path d="M230.487 84.1959V80.4708H217.973V73.7438H230.229V70.0186H217.973V63.7979H230.487V60.0728H213.666V84.1959H230.487Z" fill="white"/>
<path d="M13.7863 43.174H18.8069L13.235 32.1313L13.4264 32.0778C16.3422 31.2661 17.9914 28.9871 17.955 25.8205C17.914 21.2313 15.0073 18.6 9.98208 18.6H0V43.174H4.53317V33.0367H8.99344L13.7863 43.174ZM4.53317 29.4955V22.1411H9.13467C11.9366 22.1411 13.4218 23.4122 13.4218 25.8205C13.4218 28.434 11.9366 29.5 8.29182 29.5H4.53317V29.4955Z" fill="black"/>
<path d="M37.2904 32.2116V28.5322H28.5931V22.2794H40.5661V18.6H24.0599V43.174H40.9534V39.4946H28.5931V32.2116H37.2904Z" fill="black"/>
<path d="M60.1522 28.5322H51.6645V22.2794H63.0042V18.6H47.1313V43.174H51.6645V32.2116H60.1522V28.5322Z" fill="black"/>
<path d="M68.4394 18.6V43.174H72.9725V41.7067V18.6H68.4394Z" fill="black"/>
<path d="M107.716 18.6V43.174H112.249V41.3365V18.6H107.716Z" fill="black"/>
<path d="M135.635 18.6H117.789V22.2794H124.446V43.174H128.979V22.2794H135.635V18.6Z" fill="black"/>
<path d="M141.143 18.6V43.174H145.676V41.0957V18.6H141.143Z" fill="black"/>
<path d="M95.8115 18.6V36.0159H95.7432L85.4787 18.6H80.663V43.174H84.9137V24.9999H84.9821L95.6339 43.174H100.062V18.6H95.8115Z" fill="black"/>
<path d="M167.144 18.6L161.267 38.5179H161.226L155.344 18.6H150.902L158.656 43.174H163.836L171.591 18.6H167.144Z" fill="black"/>
<path d="M178.77 24.8C178.194 24.8 177.664 24.6635 177.178 24.3905C176.701 24.1078 176.319 23.7325 176.032 23.2646C175.754 22.7869 175.615 22.2654 175.615 21.7C175.615 21.1346 175.754 20.6179 176.032 20.15C176.319 19.6723 176.701 19.297 177.178 19.024C177.664 18.7413 178.194 18.6 178.77 18.6C179.345 18.6 179.871 18.7413 180.347 19.024C180.833 19.297 181.215 19.6723 181.493 20.15C181.781 20.6179 181.925 21.1346 181.925 21.7C181.925 22.2654 181.781 22.7869 181.493 23.2646C181.215 23.7325 180.833 24.1078 180.347 24.3905C179.871 24.6635 179.345 24.8 178.77 24.8ZM178.77 19.024C178.274 19.024 177.813 19.1459 177.386 19.3896C176.969 19.6236 176.637 19.9453 176.389 20.3547C176.151 20.7641 176.032 21.2126 176.032 21.7C176.032 22.1874 176.151 22.6358 176.389 23.0453C176.637 23.4547 176.969 23.7813 177.386 24.025C177.813 24.2687 178.274 24.3905 178.77 24.3905C179.266 24.3905 179.722 24.2687 180.139 24.025C180.556 23.7813 180.883 23.4547 181.121 23.0453C181.369 22.6358 181.493 22.1874 181.493 21.7C181.493 21.2126 181.369 20.7641 181.121 20.3547C180.883 19.9453 180.556 19.6236 180.139 19.3896C179.722 19.1459 179.266 19.024 178.77 19.024ZM178.695 22.0802H178.026V23.4839H177.565V19.9306H179.038C179.355 19.9306 179.623 20.033 179.841 20.2377C180.06 20.4327 180.169 20.691 180.169 21.0127C180.169 21.2564 180.109 21.4563 179.99 21.6122C179.881 21.7682 179.752 21.8852 179.603 21.9632C179.454 22.0314 179.335 22.0655 179.246 22.0655L180.213 23.4839H179.633L178.695 22.0802ZM178.041 20.3401V21.6561H179.053C179.231 21.6561 179.385 21.5976 179.514 21.4806C179.643 21.3539 179.707 21.1979 179.707 21.0127C179.707 20.8177 179.643 20.6569 179.514 20.5302C179.385 20.4034 179.231 20.3401 179.053 20.3401H178.041Z" fill="black"/>
</svg>
