<svg width="64" height="64" viewBox="0 0 64 64" fill="none" xmlns="http://www.w3.org/2000/svg">
    <circle cx="32" cy="32" r="31.5" stroke="currentColor"/>
    <path fill-rule="evenodd" clip-rule="evenodd" d="M31.2619 0.999512V3.95189H32.2619V0.999512H31.2619ZM45.2858 7.24687L46.762 4.69003L47.628 5.19003L46.1518 7.74687L45.2858 7.24687ZM15.8357 5.57553L17.3119 8.13237L18.1779 7.63237L16.7017 5.07553L15.8357 5.57553ZM4.8381 17.0898L7.39494 18.566L7.89494 17.7L5.3381 16.2238L4.8381 17.0898ZM3.95238 32.7374H1V31.7374H3.95238V32.7374ZM7.37126 45.509L4.81442 46.9852L5.31442 47.8512L7.87126 46.375L7.37126 45.509ZM15.9095 58.4705L17.3857 55.9136L18.2518 56.4136L16.7756 58.9705L15.9095 58.4705ZM31.2619 60.0469V62.9993H32.2619V60.0469H31.2619ZM46.9103 59.2093L45.4341 56.6525L46.3001 56.1525L47.7763 58.7093L46.9103 59.2093ZM55.9143 46.614L58.4711 48.0902L58.9711 47.2242L56.4143 45.748L55.9143 46.614ZM63 32.7374H60.0476V31.7374H63V32.7374ZM58.4237 15.8354L55.8669 17.3116L56.3669 18.1776L58.9237 16.7014L58.4237 15.8354Z" fill="currentColor"/>
</svg>
